<svg xmlns="http://www.w3.org/2000/svg" version="1.1" xmlns:xlink="http://www.w3.org/1999/xlink" xmlns:svgjs="http://svgjs.com/svgjs" width="1440" height="560" preserveAspectRatio="none" viewBox="0 0 1440 560" opacity="0.05">
    <g mask="url(&quot;#SvgjsMask1259&quot;)" fill="none">
        <path d="M467.41 130.75L545.36 175.75L545.36 265.75L467.41 310.75L389.47 265.75L389.47 175.75zM467.41 400.75L545.36 445.75L545.36 535.75L467.41 580.75L389.47 535.75L389.47 445.75zM857.13 -4.25L935.08 40.75L935.08 130.75L857.13 175.75L779.19 130.75L779.19 40.75zM857.13 265.75L935.08 310.75L935.08 400.75L857.13 445.75L779.19 400.75L779.19 310.75zM1402.75 130.75L1480.69 175.75L1480.69 265.75L1402.75 310.75L1324.8 265.75L1324.8 175.75z" stroke="rgba(0, 0, 0, 0.96)" stroke-width="2"></path>
        <path d="M458.41 130.75 a9 9 0 1 0 18 0 a9 9 0 1 0 -18 0zM536.36 175.75 a9 9 0 1 0 18 0 a9 9 0 1 0 -18 0zM536.36 265.75 a9 9 0 1 0 18 0 a9 9 0 1 0 -18 0zM458.41 310.75 a9 9 0 1 0 18 0 a9 9 0 1 0 -18 0zM380.47 265.75 a9 9 0 1 0 18 0 a9 9 0 1 0 -18 0zM380.47 175.75 a9 9 0 1 0 18 0 a9 9 0 1 0 -18 0zM458.41 400.75 a9 9 0 1 0 18 0 a9 9 0 1 0 -18 0zM536.36 445.75 a9 9 0 1 0 18 0 a9 9 0 1 0 -18 0zM536.36 535.75 a9 9 0 1 0 18 0 a9 9 0 1 0 -18 0zM458.41 580.75 a9 9 0 1 0 18 0 a9 9 0 1 0 -18 0zM380.47 535.75 a9 9 0 1 0 18 0 a9 9 0 1 0 -18 0zM380.47 445.75 a9 9 0 1 0 18 0 a9 9 0 1 0 -18 0zM848.13 -4.25 a9 9 0 1 0 18 0 a9 9 0 1 0 -18 0zM926.08 40.75 a9 9 0 1 0 18 0 a9 9 0 1 0 -18 0zM926.08 130.75 a9 9 0 1 0 18 0 a9 9 0 1 0 -18 0zM848.13 175.75 a9 9 0 1 0 18 0 a9 9 0 1 0 -18 0zM770.19 130.75 a9 9 0 1 0 18 0 a9 9 0 1 0 -18 0zM770.19 40.75 a9 9 0 1 0 18 0 a9 9 0 1 0 -18 0zM848.13 265.75 a9 9 0 1 0 18 0 a9 9 0 1 0 -18 0zM926.08 310.75 a9 9 0 1 0 18 0 a9 9 0 1 0 -18 0zM926.08 400.75 a9 9 0 1 0 18 0 a9 9 0 1 0 -18 0zM848.13 445.75 a9 9 0 1 0 18 0 a9 9 0 1 0 -18 0zM770.19 400.75 a9 9 0 1 0 18 0 a9 9 0 1 0 -18 0zM770.19 310.75 a9 9 0 1 0 18 0 a9 9 0 1 0 -18 0zM1393.75 130.75 a9 9 0 1 0 18 0 a9 9 0 1 0 -18 0zM1471.69 175.75 a9 9 0 1 0 18 0 a9 9 0 1 0 -18 0zM1471.69 265.75 a9 9 0 1 0 18 0 a9 9 0 1 0 -18 0zM1393.75 310.75 a9 9 0 1 0 18 0 a9 9 0 1 0 -18 0zM1315.8 265.75 a9 9 0 1 0 18 0 a9 9 0 1 0 -18 0zM1315.8 175.75 a9 9 0 1 0 18 0 a9 9 0 1 0 -18 0z" fill="#ff5722"></path>
        <path d="M37.58 120.45L80.02 144.95L80.02 193.95L37.58 218.45L-4.86 193.95L-4.86 144.95zM37.58 561.45L80.02 585.95L80.02 634.95L37.58 659.45L-4.86 634.95L-4.86 585.95zM249.76 487.95L292.2 512.45L292.2 561.45L249.76 585.95L207.33 561.45L207.33 512.45zM334.64 487.95L377.07 512.45L377.07 561.45L334.64 585.95L292.2 561.45L292.2 512.45zM419.51 46.95L461.94 71.45L461.94 120.45L419.51 144.95L377.07 120.45L377.07 71.45zM377.07 267.45L419.51 291.95L419.51 340.95L377.07 365.45L334.64 340.95L334.64 291.95zM419.51 340.95L461.94 365.45L461.94 414.45L419.51 438.95L377.07 414.45L377.07 365.45zM461.94 120.45L504.38 144.95L504.38 193.95L461.94 218.45L419.51 193.95L419.51 144.95zM546.82 120.45L589.25 144.95L589.25 193.95L546.82 218.45L504.38 193.95L504.38 144.95zM546.82 267.45L589.25 291.95L589.25 340.95L546.82 365.45L504.38 340.95L504.38 291.95zM589.25 340.95L631.69 365.45L631.69 414.45L589.25 438.95L546.82 414.45L546.82 365.45zM674.13 193.95L716.56 218.45L716.56 267.45L674.13 291.95L631.69 267.45L631.69 218.45zM674.13 340.95L716.56 365.45L716.56 414.45L674.13 438.95L631.69 414.45L631.69 365.45zM716.56 414.45L759 438.95L759 487.95L716.56 512.45L674.13 487.95L674.13 438.95zM801.44 -26.55L843.87 -2.05L843.87 46.95L801.44 71.45L759 46.95L759 -2.05zM1013.62 487.95L1056.05 512.45L1056.05 561.45L1013.62 585.95L971.18 561.45L971.18 512.45zM1183.36 487.95L1225.8 512.45L1225.8 561.45L1183.36 585.95L1140.93 561.45L1140.93 512.45zM1225.8 -26.55L1268.24 -2.05L1268.24 46.95L1225.8 71.45L1183.36 46.95L1183.36 -2.05zM1268.24 46.95L1310.67 71.45L1310.67 120.45L1268.24 144.95L1225.8 120.45L1225.8 71.45zM1268.24 193.95L1310.67 218.45L1310.67 267.45L1268.24 291.95L1225.8 267.45L1225.8 218.45zM1268.24 487.95L1310.67 512.45L1310.67 561.45L1268.24 585.95L1225.8 561.45L1225.8 512.45zM1310.67 -26.55L1353.11 -2.05L1353.11 46.95L1310.67 71.45L1268.24 46.95L1268.24 -2.05zM1310.67 120.45L1353.11 144.95L1353.11 193.95L1310.67 218.45L1268.24 193.95L1268.24 144.95zM1353.11 193.95L1395.55 218.45L1395.55 267.45L1353.11 291.95L1310.67 267.45L1310.67 218.45zM1353.11 487.95L1395.55 512.45L1395.55 561.45L1353.11 585.95L1310.67 561.45L1310.67 512.45zM1437.98 46.95L1480.42 71.45L1480.42 120.45L1437.98 144.95L1395.55 120.45L1395.55 71.45z" stroke="rgba(9, 9, 9, 0.93)" stroke-width="2"></path>
        <path d="M32.68 120.45 a4.9 4.9 0 1 0 9.8 0 a4.9 4.9 0 1 0 -9.8 0zM75.12 144.95 a4.9 4.9 0 1 0 9.8 0 a4.9 4.9 0 1 0 -9.8 0zM75.12 193.95 a4.9 4.9 0 1 0 9.8 0 a4.9 4.9 0 1 0 -9.8 0zM32.68 218.45 a4.9 4.9 0 1 0 9.8 0 a4.9 4.9 0 1 0 -9.8 0zM-9.76 193.95 a4.9 4.9 0 1 0 9.8 0 a4.9 4.9 0 1 0 -9.8 0zM-9.76 144.95 a4.9 4.9 0 1 0 9.8 0 a4.9 4.9 0 1 0 -9.8 0zM32.68 561.45 a4.9 4.9 0 1 0 9.8 0 a4.9 4.9 0 1 0 -9.8 0zM75.12 585.95 a4.9 4.9 0 1 0 9.8 0 a4.9 4.9 0 1 0 -9.8 0zM75.12 634.95 a4.9 4.9 0 1 0 9.8 0 a4.9 4.9 0 1 0 -9.8 0zM32.68 659.45 a4.9 4.9 0 1 0 9.8 0 a4.9 4.9 0 1 0 -9.8 0zM-9.76 634.95 a4.9 4.9 0 1 0 9.8 0 a4.9 4.9 0 1 0 -9.8 0zM-9.76 585.95 a4.9 4.9 0 1 0 9.8 0 a4.9 4.9 0 1 0 -9.8 0zM244.86 487.95 a4.9 4.9 0 1 0 9.8 0 a4.9 4.9 0 1 0 -9.8 0zM287.3 512.45 a4.9 4.9 0 1 0 9.8 0 a4.9 4.9 0 1 0 -9.8 0zM287.3 561.45 a4.9 4.9 0 1 0 9.8 0 a4.9 4.9 0 1 0 -9.8 0zM244.86 585.95 a4.9 4.9 0 1 0 9.8 0 a4.9 4.9 0 1 0 -9.8 0zM202.43 561.45 a4.9 4.9 0 1 0 9.8 0 a4.9 4.9 0 1 0 -9.8 0zM202.43 512.45 a4.9 4.9 0 1 0 9.8 0 a4.9 4.9 0 1 0 -9.8 0zM329.74 487.95 a4.9 4.9 0 1 0 9.8 0 a4.9 4.9 0 1 0 -9.8 0zM372.17 512.45 a4.9 4.9 0 1 0 9.8 0 a4.9 4.9 0 1 0 -9.8 0zM372.17 561.45 a4.9 4.9 0 1 0 9.8 0 a4.9 4.9 0 1 0 -9.8 0zM329.74 585.95 a4.9 4.9 0 1 0 9.8 0 a4.9 4.9 0 1 0 -9.8 0zM414.61 46.95 a4.9 4.9 0 1 0 9.8 0 a4.9 4.9 0 1 0 -9.8 0zM457.04 71.45 a4.9 4.9 0 1 0 9.8 0 a4.9 4.9 0 1 0 -9.8 0zM457.04 120.45 a4.9 4.9 0 1 0 9.8 0 a4.9 4.9 0 1 0 -9.8 0zM414.61 144.95 a4.9 4.9 0 1 0 9.8 0 a4.9 4.9 0 1 0 -9.8 0zM372.17 120.45 a4.9 4.9 0 1 0 9.8 0 a4.9 4.9 0 1 0 -9.8 0zM372.17 71.45 a4.9 4.9 0 1 0 9.8 0 a4.9 4.9 0 1 0 -9.8 0zM372.17 267.45 a4.9 4.9 0 1 0 9.8 0 a4.9 4.9 0 1 0 -9.8 0zM414.61 291.95 a4.9 4.9 0 1 0 9.8 0 a4.9 4.9 0 1 0 -9.8 0zM414.61 340.95 a4.9 4.9 0 1 0 9.8 0 a4.9 4.9 0 1 0 -9.8 0zM372.17 365.45 a4.9 4.9 0 1 0 9.8 0 a4.9 4.9 0 1 0 -9.8 0zM329.74 340.95 a4.9 4.9 0 1 0 9.8 0 a4.9 4.9 0 1 0 -9.8 0zM329.74 291.95 a4.9 4.9 0 1 0 9.8 0 a4.9 4.9 0 1 0 -9.8 0zM457.04 365.45 a4.9 4.9 0 1 0 9.8 0 a4.9 4.9 0 1 0 -9.8 0zM457.04 414.45 a4.9 4.9 0 1 0 9.8 0 a4.9 4.9 0 1 0 -9.8 0zM414.61 438.95 a4.9 4.9 0 1 0 9.8 0 a4.9 4.9 0 1 0 -9.8 0zM372.17 414.45 a4.9 4.9 0 1 0 9.8 0 a4.9 4.9 0 1 0 -9.8 0zM499.48 144.95 a4.9 4.9 0 1 0 9.8 0 a4.9 4.9 0 1 0 -9.8 0zM499.48 193.95 a4.9 4.9 0 1 0 9.8 0 a4.9 4.9 0 1 0 -9.8 0zM457.04 218.45 a4.9 4.9 0 1 0 9.8 0 a4.9 4.9 0 1 0 -9.8 0zM414.61 193.95 a4.9 4.9 0 1 0 9.8 0 a4.9 4.9 0 1 0 -9.8 0zM541.92 120.45 a4.9 4.9 0 1 0 9.8 0 a4.9 4.9 0 1 0 -9.8 0zM584.35 144.95 a4.9 4.9 0 1 0 9.8 0 a4.9 4.9 0 1 0 -9.8 0zM584.35 193.95 a4.9 4.9 0 1 0 9.8 0 a4.9 4.9 0 1 0 -9.8 0zM541.92 218.45 a4.9 4.9 0 1 0 9.8 0 a4.9 4.9 0 1 0 -9.8 0zM541.92 267.45 a4.9 4.9 0 1 0 9.8 0 a4.9 4.9 0 1 0 -9.8 0zM584.35 291.95 a4.9 4.9 0 1 0 9.8 0 a4.9 4.9 0 1 0 -9.8 0zM584.35 340.95 a4.9 4.9 0 1 0 9.8 0 a4.9 4.9 0 1 0 -9.8 0zM541.92 365.45 a4.9 4.9 0 1 0 9.8 0 a4.9 4.9 0 1 0 -9.8 0zM499.48 340.95 a4.9 4.9 0 1 0 9.8 0 a4.9 4.9 0 1 0 -9.8 0zM499.48 291.95 a4.9 4.9 0 1 0 9.8 0 a4.9 4.9 0 1 0 -9.8 0zM626.79 365.45 a4.9 4.9 0 1 0 9.8 0 a4.9 4.9 0 1 0 -9.8 0zM626.79 414.45 a4.9 4.9 0 1 0 9.8 0 a4.9 4.9 0 1 0 -9.8 0zM584.35 438.95 a4.9 4.9 0 1 0 9.8 0 a4.9 4.9 0 1 0 -9.8 0zM541.92 414.45 a4.9 4.9 0 1 0 9.8 0 a4.9 4.9 0 1 0 -9.8 0zM669.23 193.95 a4.9 4.9 0 1 0 9.8 0 a4.9 4.9 0 1 0 -9.8 0zM711.66 218.45 a4.9 4.9 0 1 0 9.8 0 a4.9 4.9 0 1 0 -9.8 0zM711.66 267.45 a4.9 4.9 0 1 0 9.8 0 a4.9 4.9 0 1 0 -9.8 0zM669.23 291.95 a4.9 4.9 0 1 0 9.8 0 a4.9 4.9 0 1 0 -9.8 0zM626.79 267.45 a4.9 4.9 0 1 0 9.8 0 a4.9 4.9 0 1 0 -9.8 0zM626.79 218.45 a4.9 4.9 0 1 0 9.8 0 a4.9 4.9 0 1 0 -9.8 0zM669.23 340.95 a4.9 4.9 0 1 0 9.8 0 a4.9 4.9 0 1 0 -9.8 0zM711.66 365.45 a4.9 4.9 0 1 0 9.8 0 a4.9 4.9 0 1 0 -9.8 0zM711.66 414.45 a4.9 4.9 0 1 0 9.8 0 a4.9 4.9 0 1 0 -9.8 0zM669.23 438.95 a4.9 4.9 0 1 0 9.8 0 a4.9 4.9 0 1 0 -9.8 0zM754.1 438.95 a4.9 4.9 0 1 0 9.8 0 a4.9 4.9 0 1 0 -9.8 0zM754.1 487.95 a4.9 4.9 0 1 0 9.8 0 a4.9 4.9 0 1 0 -9.8 0zM711.66 512.45 a4.9 4.9 0 1 0 9.8 0 a4.9 4.9 0 1 0 -9.8 0zM669.23 487.95 a4.9 4.9 0 1 0 9.8 0 a4.9 4.9 0 1 0 -9.8 0zM796.54 -26.55 a4.9 4.9 0 1 0 9.8 0 a4.9 4.9 0 1 0 -9.8 0zM838.97 -2.05 a4.9 4.9 0 1 0 9.8 0 a4.9 4.9 0 1 0 -9.8 0zM838.97 46.95 a4.9 4.9 0 1 0 9.8 0 a4.9 4.9 0 1 0 -9.8 0zM796.54 71.45 a4.9 4.9 0 1 0 9.8 0 a4.9 4.9 0 1 0 -9.8 0zM754.1 46.95 a4.9 4.9 0 1 0 9.8 0 a4.9 4.9 0 1 0 -9.8 0zM754.1 -2.05 a4.9 4.9 0 1 0 9.8 0 a4.9 4.9 0 1 0 -9.8 0zM1008.72 487.95 a4.9 4.9 0 1 0 9.8 0 a4.9 4.9 0 1 0 -9.8 0zM1051.15 512.45 a4.9 4.9 0 1 0 9.8 0 a4.9 4.9 0 1 0 -9.8 0zM1051.15 561.45 a4.9 4.9 0 1 0 9.8 0 a4.9 4.9 0 1 0 -9.8 0zM1008.72 585.95 a4.9 4.9 0 1 0 9.8 0 a4.9 4.9 0 1 0 -9.8 0zM966.28 561.45 a4.9 4.9 0 1 0 9.8 0 a4.9 4.9 0 1 0 -9.8 0zM966.28 512.45 a4.9 4.9 0 1 0 9.8 0 a4.9 4.9 0 1 0 -9.8 0zM1178.46 487.95 a4.9 4.9 0 1 0 9.8 0 a4.9 4.9 0 1 0 -9.8 0zM1220.9 512.45 a4.9 4.9 0 1 0 9.8 0 a4.9 4.9 0 1 0 -9.8 0zM1220.9 561.45 a4.9 4.9 0 1 0 9.8 0 a4.9 4.9 0 1 0 -9.8 0zM1178.46 585.95 a4.9 4.9 0 1 0 9.8 0 a4.9 4.9 0 1 0 -9.8 0zM1136.03 561.45 a4.9 4.9 0 1 0 9.8 0 a4.9 4.9 0 1 0 -9.8 0zM1136.03 512.45 a4.9 4.9 0 1 0 9.8 0 a4.9 4.9 0 1 0 -9.8 0zM1220.9 -26.55 a4.9 4.9 0 1 0 9.8 0 a4.9 4.9 0 1 0 -9.8 0zM1263.34 -2.05 a4.9 4.9 0 1 0 9.8 0 a4.9 4.9 0 1 0 -9.8 0zM1263.34 46.95 a4.9 4.9 0 1 0 9.8 0 a4.9 4.9 0 1 0 -9.8 0zM1220.9 71.45 a4.9 4.9 0 1 0 9.8 0 a4.9 4.9 0 1 0 -9.8 0zM1178.46 46.95 a4.9 4.9 0 1 0 9.8 0 a4.9 4.9 0 1 0 -9.8 0zM1178.46 -2.05 a4.9 4.9 0 1 0 9.8 0 a4.9 4.9 0 1 0 -9.8 0zM1305.77 71.45 a4.9 4.9 0 1 0 9.8 0 a4.9 4.9 0 1 0 -9.8 0zM1305.77 120.45 a4.9 4.9 0 1 0 9.8 0 a4.9 4.9 0 1 0 -9.8 0zM1263.34 144.95 a4.9 4.9 0 1 0 9.8 0 a4.9 4.9 0 1 0 -9.8 0zM1220.9 120.45 a4.9 4.9 0 1 0 9.8 0 a4.9 4.9 0 1 0 -9.8 0zM1263.34 193.95 a4.9 4.9 0 1 0 9.8 0 a4.9 4.9 0 1 0 -9.8 0zM1305.77 218.45 a4.9 4.9 0 1 0 9.8 0 a4.9 4.9 0 1 0 -9.8 0zM1305.77 267.45 a4.9 4.9 0 1 0 9.8 0 a4.9 4.9 0 1 0 -9.8 0zM1263.34 291.95 a4.9 4.9 0 1 0 9.8 0 a4.9 4.9 0 1 0 -9.8 0zM1220.9 267.45 a4.9 4.9 0 1 0 9.8 0 a4.9 4.9 0 1 0 -9.8 0zM1220.9 218.45 a4.9 4.9 0 1 0 9.8 0 a4.9 4.9 0 1 0 -9.8 0zM1263.34 487.95 a4.9 4.9 0 1 0 9.8 0 a4.9 4.9 0 1 0 -9.8 0zM1305.77 512.45 a4.9 4.9 0 1 0 9.8 0 a4.9 4.9 0 1 0 -9.8 0zM1305.77 561.45 a4.9 4.9 0 1 0 9.8 0 a4.9 4.9 0 1 0 -9.8 0zM1263.34 585.95 a4.9 4.9 0 1 0 9.8 0 a4.9 4.9 0 1 0 -9.8 0zM1305.77 -26.55 a4.9 4.9 0 1 0 9.8 0 a4.9 4.9 0 1 0 -9.8 0zM1348.21 -2.05 a4.9 4.9 0 1 0 9.8 0 a4.9 4.9 0 1 0 -9.8 0zM1348.21 46.95 a4.9 4.9 0 1 0 9.8 0 a4.9 4.9 0 1 0 -9.8 0zM1348.21 144.95 a4.9 4.9 0 1 0 9.8 0 a4.9 4.9 0 1 0 -9.8 0zM1348.21 193.95 a4.9 4.9 0 1 0 9.8 0 a4.9 4.9 0 1 0 -9.8 0zM1390.65 218.45 a4.9 4.9 0 1 0 9.8 0 a4.9 4.9 0 1 0 -9.8 0zM1390.65 267.45 a4.9 4.9 0 1 0 9.8 0 a4.9 4.9 0 1 0 -9.8 0zM1348.21 291.95 a4.9 4.9 0 1 0 9.8 0 a4.9 4.9 0 1 0 -9.8 0zM1348.21 487.95 a4.9 4.9 0 1 0 9.8 0 a4.9 4.9 0 1 0 -9.8 0zM1390.65 512.45 a4.9 4.9 0 1 0 9.8 0 a4.9 4.9 0 1 0 -9.8 0zM1390.65 561.45 a4.9 4.9 0 1 0 9.8 0 a4.9 4.9 0 1 0 -9.8 0zM1348.21 585.95 a4.9 4.9 0 1 0 9.8 0 a4.9 4.9 0 1 0 -9.8 0zM1433.08 46.95 a4.9 4.9 0 1 0 9.8 0 a4.9 4.9 0 1 0 -9.8 0zM1475.52 71.45 a4.9 4.9 0 1 0 9.8 0 a4.9 4.9 0 1 0 -9.8 0zM1475.52 120.45 a4.9 4.9 0 1 0 9.8 0 a4.9 4.9 0 1 0 -9.8 0zM1433.08 144.95 a4.9 4.9 0 1 0 9.8 0 a4.9 4.9 0 1 0 -9.8 0zM1390.65 120.45 a4.9 4.9 0 1 0 9.8 0 a4.9 4.9 0 1 0 -9.8 0zM1390.65 71.45 a4.9 4.9 0 1 0 9.8 0 a4.9 4.9 0 1 0 -9.8 0z" fill="#ff5722"></path>
    </g>
    <defs>
        <mask id="SvgjsMask1259">
            <rect width="1440" height="560" fill="#ffffff"></rect>
        </mask>
    </defs>
</svg>